<svg width="498" height="102" viewBox="0 0 498 102" fill="none" xmlns="http://www.w3.org/2000/svg">
<path d="M97.7577 9.29248C104.062 9.29248 109.677 10.6223 114.602 13.282C119.528 15.8432 123.419 19.7342 126.276 24.9551C129.132 30.176 130.561 36.5297 130.561 44.0163V91.743H117.262V45.9372C117.262 37.8596 115.243 31.7029 111.204 27.4671C107.264 23.1327 101.895 20.9656 95.098 20.9656C88.104 20.9656 82.5383 23.2312 78.401 27.7626C74.2637 32.1954 72.1951 38.6476 72.1951 47.1193V91.743H58.8966V45.9372C58.8966 37.8596 56.8772 31.7029 52.8384 27.4671C48.8981 23.1327 43.5295 20.9656 36.7325 20.9656C29.7384 20.9656 24.1728 23.2312 20.0355 27.7626C15.8982 32.1954 13.8295 38.6476 13.8295 47.1193V91.743H0.383301V10.7701H13.8295V22.4432C16.4892 18.2074 20.0355 14.9566 24.4683 12.691C28.9996 10.4253 33.9743 9.29248 39.3922 9.29248C46.1892 9.29248 52.1981 10.8193 57.419 13.8731C62.6399 16.9268 66.5309 21.4089 69.0921 27.3193C71.3577 21.6059 75.101 17.1731 80.3219 14.0208C85.5428 10.8686 91.3547 9.29248 97.7577 9.29248Z" fill="white"/>
<path fill-rule="evenodd" clip-rule="evenodd" d="M146.116 50.961C146.116 42.6864 147.79 35.4461 151.14 29.2402C154.489 22.9357 159.07 18.0596 164.881 14.6119C170.792 11.1641 177.343 9.44024 184.534 9.44024C191.626 9.44024 197.783 10.9671 203.004 14.0208C208.225 17.0746 212.116 20.9163 214.677 25.5462V10.7701H228.271V91.743H214.677V76.6714C212.017 81.3998 208.028 85.34 202.708 88.4923C197.487 91.546 191.38 93.0729 184.386 93.0729C177.195 93.0729 170.693 91.2997 164.881 87.7535C159.07 84.2072 154.489 79.2326 151.14 72.8296C147.79 66.4267 146.116 59.1371 146.116 50.961ZM214.677 51.1088C214.677 45.0013 213.446 39.682 210.983 35.1506C208.52 30.6193 205.171 27.1715 200.935 24.8074C196.798 22.3447 192.217 21.1133 187.193 21.1133C182.17 21.1133 177.589 22.2954 173.452 24.6596C169.314 27.0238 166.014 30.4715 163.552 35.0029C161.089 39.5342 159.858 44.8536 159.858 50.961C159.858 57.167 161.089 62.5849 163.552 67.2147C166.014 71.746 169.314 75.2431 173.452 77.7057C177.589 80.0699 182.17 81.252 187.193 81.252C192.217 81.252 196.798 80.0699 200.935 77.7057C205.171 75.2431 208.52 71.746 210.983 67.2147C213.446 62.5849 214.677 57.2162 214.677 51.1088Z" fill="white"/>
<path d="M312.905 18.3059C306.798 12.297 298.819 9.29248 288.968 9.29248C283.452 9.29248 278.379 10.4253 273.749 12.691C269.218 14.9566 265.622 18.1581 262.962 22.2954V10.7701H249.516V91.743H262.962V46.9715C262.962 38.4999 265.031 32.0476 269.168 27.6148C273.404 23.182 279.068 20.9656 286.161 20.9656C293.155 20.9656 298.671 23.1327 302.71 27.4671C306.749 31.7029 308.768 37.8596 308.768 45.9372V91.743H322.067V44.0163C322.067 32.7865 319.013 24.2163 312.905 18.3059Z" fill="white"/>
<path d="M375.007 101.846L412.297 10.7701H398.407L373.288 76.3759L347.873 10.7701H332.949L365.604 90.8564L361.108 101.846H375.007Z" fill="white"/>
<path d="M489.052 8.95651C489.993 9.89785 491.144 10.3685 492.504 10.3685C493.811 10.3685 494.909 9.89785 495.798 8.95651C496.74 8.01517 497.21 6.86465 497.21 5.50494C497.21 4.14523 496.74 2.9947 495.798 2.05336C494.909 1.11203 493.811 0.641357 492.504 0.641357C491.144 0.641357 489.993 1.11203 489.052 2.05336C488.111 2.9947 487.64 4.14523 487.64 5.50494C487.64 6.86465 488.111 8.01517 489.052 8.95651Z" fill="white"/>
<path d="M495.955 60.3379V17.3501H488.817V60.3379H495.955Z" fill="white"/>
<path d="M419.727 59.3965C420.668 60.3379 421.819 60.8085 423.179 60.8085C424.486 60.8085 425.584 60.3379 426.473 59.3965C427.415 58.4552 427.885 57.3047 427.885 55.945C427.885 54.5853 427.415 53.4347 426.473 52.4934C425.584 51.5521 424.486 51.0814 423.179 51.0814C421.819 51.0814 420.668 51.5521 419.727 52.4934C418.786 53.4347 418.315 54.5853 418.315 55.945C418.315 57.3047 418.786 58.4552 419.727 59.3965Z" fill="white"/>
<path fill-rule="evenodd" clip-rule="evenodd" d="M433.922 38.6871C433.922 34.2942 434.811 30.4504 436.59 27.1557C438.368 23.8087 440.799 21.2201 443.885 19.3897C447.023 17.5593 450.5 16.6441 454.318 16.6441C458.083 16.6441 461.352 17.4547 464.124 19.0759C466.895 20.6971 468.961 22.7367 470.321 25.1946V17.3501H477.538V60.3379H470.321V52.3365C468.909 54.8467 466.791 56.9386 463.967 58.6121C461.195 60.2333 457.953 61.0439 454.24 61.0439C450.422 61.0439 446.97 60.1025 443.885 58.2199C440.799 56.3372 438.368 53.6962 436.59 50.2969C434.811 46.8977 433.922 43.0277 433.922 38.6871ZM470.321 38.7655C470.321 35.5232 469.667 32.6991 468.36 30.2935C467.052 27.8879 465.274 26.0575 463.025 24.8024C460.829 23.495 458.397 22.8412 455.73 22.8412C453.063 22.8412 450.631 23.4688 448.435 24.7239C446.238 25.979 444.486 27.8094 443.179 30.2151C441.871 32.6207 441.218 35.4447 441.218 38.6871C441.218 41.9818 441.871 44.8581 443.179 47.316C444.486 49.7217 446.238 51.5782 448.435 52.8856C450.631 54.1407 453.063 54.7683 455.73 54.7683C458.397 54.7683 460.829 54.1407 463.025 52.8856C465.274 51.5782 467.052 49.7217 468.36 47.316C469.667 44.8581 470.321 42.0079 470.321 38.7655Z" fill="white"/>
</svg>
